<svg width="244" height="69" viewBox="0 0 244 69" fill="none" xmlns="http://www.w3.org/2000/svg">
<path d="M110.914 35.2781C109.132 34.2173 107.754 32.6968 106.78 30.7284C105.817 28.76 105.33 26.4616 105.33 23.8567C105.33 21.2165 105.817 18.9063 106.78 16.9379C107.742 14.9695 109.12 13.449 110.914 12.3882C112.697 11.3273 114.776 10.7969 117.129 10.7969C119.481 10.7969 121.56 11.3273 123.343 12.3882C125.125 13.449 126.503 14.9695 127.477 16.9379C128.44 18.9063 128.927 21.2165 128.927 23.8567C128.927 26.4616 128.44 28.7483 127.477 30.7284C126.515 32.6968 125.137 34.2173 123.343 35.2781C121.56 36.339 119.481 36.8694 117.129 36.8694C114.776 36.8811 112.697 36.3507 110.914 35.2781ZM122.166 30.4927C123.331 28.984 123.913 26.7681 123.913 23.8567C123.913 20.969 123.319 18.7648 122.143 17.2443C120.966 15.7238 119.291 14.9577 117.129 14.9577C114.966 14.9577 113.291 15.7238 112.115 17.2443C110.938 18.7766 110.344 20.9807 110.344 23.8567C110.344 26.7681 110.926 28.984 112.091 30.4927C113.255 32.0014 114.93 32.7558 117.129 32.7558C119.327 32.7676 121.014 32.0132 122.166 30.4927Z" fill="#F8F8F8"/>
<path d="M153.26 20.9216V34.2996C153.26 35.0893 153.035 35.7023 152.595 36.1266C152.155 36.5509 151.538 36.7749 150.753 36.7749C149.993 36.7749 149.399 36.5509 148.959 36.103C148.52 35.6551 148.294 35.054 148.294 34.2996V21.1809C148.294 19.0593 147.89 17.4916 147.094 16.5015C146.286 15.5114 145.038 15.0046 143.339 15.0046C141.343 15.0046 139.739 15.6529 138.527 16.9612C137.315 18.2696 136.709 20.014 136.709 22.2064V34.2996C136.709 35.054 136.484 35.6551 136.044 36.103C135.604 36.5509 134.998 36.7749 134.25 36.7749C133.501 36.7749 132.883 36.5509 132.432 36.103C131.969 35.6551 131.743 35.054 131.743 34.2996V13.3662C131.743 12.6473 131.98 12.0461 132.456 11.5864C132.931 11.1268 133.525 10.891 134.25 10.891C134.975 10.891 135.545 11.115 135.973 11.5629C136.4 12.0108 136.614 12.5883 136.614 13.3191V15.4289C137.398 13.9202 138.492 12.7651 139.905 11.9754C141.319 11.1857 142.9 10.7967 144.67 10.7967C150.397 10.7849 153.26 14.1678 153.26 20.9216Z" fill="#F8F8F8"/>
<path d="M178.176 20.9216V34.2996C178.176 35.0893 177.95 35.7023 177.511 36.1266C177.071 36.5509 176.453 36.7749 175.669 36.7749C174.92 36.7749 174.315 36.5509 173.875 36.103C173.435 35.6551 173.21 35.054 173.21 34.2996V21.1809C173.21 19.0593 172.806 17.4916 172.009 16.5015C171.202 15.5114 169.954 15.0046 168.255 15.0046C166.259 15.0046 164.655 15.6529 163.443 16.9612C162.231 18.2696 161.625 20.014 161.625 22.2064V34.2996C161.625 35.054 161.399 35.6551 160.96 36.103C160.52 36.5509 159.914 36.7749 159.166 36.7749C158.417 36.7749 157.811 36.5509 157.348 36.103C156.884 35.6551 156.659 35.054 156.659 34.2996V13.3662C156.659 12.6473 156.896 12.0461 157.371 11.5864C157.847 11.1268 158.441 10.891 159.166 10.891C159.89 10.891 160.461 11.115 160.888 11.5629C161.316 12.0108 161.53 12.5883 161.53 13.3191V15.4289C162.314 13.9202 163.419 12.7651 164.821 11.9754C166.235 11.1857 167.815 10.7967 169.586 10.7967C175.313 10.7849 178.176 14.1678 178.176 20.9216Z" fill="#F8F8F8"/>
<path d="M186.458 35.278C184.675 34.2171 183.297 32.6966 182.323 30.7283C181.36 28.7599 180.873 26.4614 180.873 23.8565C180.873 21.2163 181.36 18.9061 182.323 16.9377C183.297 14.9693 184.663 13.4488 186.458 12.388C188.24 11.3272 190.319 10.7968 192.672 10.7968C195.036 10.7968 197.103 11.3272 198.886 12.388C200.668 13.4488 202.046 14.9693 203.009 16.9377C203.971 18.9061 204.458 21.2163 204.458 23.8565C204.458 26.4614 203.971 28.7481 203.009 30.7283C202.046 32.6966 200.668 34.2171 198.886 35.278C197.103 36.3388 195.024 36.8692 192.672 36.8692C190.319 36.881 188.252 36.3506 186.458 35.278ZM197.721 30.4925C198.886 28.9838 199.468 26.7679 199.468 23.8565C199.468 20.9688 198.874 18.7646 197.697 17.2441C196.521 15.7236 194.846 14.9575 192.683 14.9575C190.521 14.9575 188.846 15.7236 187.669 17.2441C186.493 18.7764 185.899 20.9806 185.899 23.8565C185.899 26.7679 186.481 28.9838 187.646 30.4925C188.81 32.0012 190.485 32.7556 192.683 32.7556C194.87 32.7674 196.557 32.013 197.721 30.4925Z" fill="#F8F8F8"/>
<path d="M241.588 10.9382C242.206 10.9382 242.764 11.1621 243.263 11.61C243.75 12.0579 244 12.6001 244 13.2602C244 13.602 243.929 13.9084 243.798 14.1913L235.635 35.0304C235.433 35.5726 235.113 35.9969 234.649 36.2916C234.186 36.5863 233.687 36.7277 233.128 36.7277C232.606 36.7277 232.107 36.5863 231.655 36.2916C231.192 35.9969 230.871 35.5844 230.669 35.0304L224.288 18.5053L218.051 35.0304C217.849 35.5726 217.528 35.9969 217.088 36.2916C216.649 36.5863 216.15 36.7277 215.591 36.7277C215.068 36.7277 214.569 36.5863 214.094 36.2916C213.619 35.9969 213.262 35.5844 213.037 35.0304L204.921 14.1913C204.791 13.9202 204.719 13.6256 204.719 13.3191C204.719 12.6355 204.993 12.0697 205.527 11.6218C206.062 11.1739 206.668 10.95 207.322 10.95C208.308 10.95 208.973 11.445 209.341 12.4469L215.686 29.9974L222.174 12.6001C222.364 12.0461 222.684 11.6454 223.1 11.3625C223.528 11.0914 223.98 10.95 224.479 10.95C224.942 10.95 225.382 11.0914 225.809 11.3625C226.237 11.6336 226.546 12.0461 226.748 12.6001L233.235 29.8914L239.568 12.494C239.936 11.4568 240.602 10.9382 241.588 10.9382Z" fill="#F8F8F8"/>
<path d="M69.5547 64.3442C69.5547 66.9137 67.4517 69 64.8615 69H4.69322C2.10304 69 0 66.9137 0 64.3442V4.65579C0 2.08627 2.10304 0 4.69322 0H64.8615C67.4517 0 69.5547 2.08627 69.5547 4.65579V64.3442Z" fill="#F8F8F8"/>
<path fill-rule="evenodd" clip-rule="evenodd" d="M30.4525 26.9329C29.9178 26.9329 29.4901 27.3572 29.4901 27.8994C29.4901 28.4298 29.9178 28.8541 30.4525 28.8541C30.9871 28.8541 31.4267 28.418 31.4267 27.8994C31.4267 27.369 30.999 26.9329 30.4525 26.9329Z" fill="#F15B25"/>
<path fill-rule="evenodd" clip-rule="evenodd" d="M40.5518 26.9329C40.0171 26.9329 39.5775 27.3572 39.5775 27.8994C39.5775 28.4298 40.0052 28.8541 40.5518 28.8541C41.0865 28.8541 41.5142 28.418 41.5142 27.8994C41.5261 27.369 41.0865 26.9329 40.5518 26.9329Z" fill="#F15B25"/>
<path d="M55.8434 23.7504C55.5582 23.7504 55.3206 23.9626 55.3206 24.2219V27.0507H54.6552V24.2219C54.6552 23.9626 54.4176 23.7504 54.1206 23.7504C53.8354 23.7504 53.5978 23.9626 53.5978 24.2219V27.0507H52.9324V24.2219C52.9324 23.9626 52.6948 23.7504 52.4096 23.7504C52.1245 23.7504 51.8868 23.9626 51.8868 24.2219V27.4043C51.8987 28.4769 52.3621 29.4552 53.5027 29.7146L53.4908 29.8324C52.172 38.4722 44.5203 45.002 35.6922 45.002C27.8979 45.002 21.0304 40.0752 18.5947 32.7438C18.4877 32.4255 18.1432 32.2605 17.8342 32.3548C17.5134 32.4609 17.3471 32.8027 17.454 33.1092C20.0561 40.9356 27.387 46.1925 35.7041 46.1925C40.3261 46.1925 44.7935 44.5424 48.2867 41.5367C51.7443 38.5664 54.0136 34.4764 54.6909 30.0092C54.6909 29.9857 54.7028 29.8914 54.7146 29.8088L54.7265 29.7028C55.8909 29.4552 56.3662 28.4652 56.3662 27.3808V24.1983C56.3662 23.9626 56.1286 23.7504 55.8434 23.7504Z" fill="#F15B25"/>
<path d="M17.7392 25.9428C18.3689 16.6901 26.2701 9.28801 35.6922 9.28801C43.8667 9.28801 51.0194 14.7571 53.0987 22.5835C53.1819 22.9018 53.5146 23.0904 53.8354 23.0079C54.1562 22.9254 54.3582 22.5953 54.2631 22.2771C52.0413 13.9202 44.4014 8.08575 35.6922 8.08575C30.6426 8.08575 25.878 10.0188 22.266 13.5077C18.8442 16.8316 16.8243 21.2163 16.5272 25.931C13.1054 26.4732 14.8876 32.0248 17.0857 32.0248C19.2719 32.0248 21.0422 26.5675 17.7392 25.9428ZM17.0857 27.0036C16.6579 27.0036 16.2421 27.0389 15.85 27.1215C16.1708 26.6971 16.6104 26.426 17.0857 26.426C17.5728 26.426 18.0006 26.6853 18.3214 27.1215C17.9412 27.0389 17.5134 27.0036 17.0857 27.0036Z" fill="#F15B25"/>
<path fill-rule="evenodd" clip-rule="evenodd" d="M51.7086 39.2736C51.1739 35.4547 50.6274 31.6358 50.0452 27.8286C49.5818 24.823 48.9758 21.8174 47.1223 19.3068C43.8905 14.8867 39.5894 12.2465 34.0051 13.0008C28.1593 13.7906 24.0127 17.1734 22.2423 22.8664C21.2799 25.9781 20.9353 29.2902 20.3412 32.5198C19.9254 34.7593 19.5571 37.0224 19.165 39.2736H19.1887C18.5471 42.0907 18.1669 45.002 17.1926 47.6894C16.5154 49.5753 16.0876 50.6597 15.1846 52.4984C14.4955 53.8893 13.9608 54.9501 13.4381 56.4352C12.8559 58.0147 13.4499 58.6158 13.7351 58.8044C14.0203 59.0048 14.9589 59.6059 16.254 59.7355C16.254 59.7355 17.7867 59.9949 19.5333 59.5587C21.9453 58.934 24.2622 58.1679 26.5791 56.9067C28.8128 55.6927 30.7257 55.3626 31.8545 58.3329C33.2446 62.034 35.6685 61.2678 37.522 59.0991C39.2924 57.0364 40.4805 54.4197 41.74 51.9445C43.0351 49.3985 44.1638 47.4419 47.1936 50.2589C49.558 52.4631 51.1264 50.6833 51.6017 48.4556C51.5779 48.4556 52.4453 44.4481 51.7086 39.2736ZM33.3159 25.872C33.0783 25.9899 32.8288 25.9192 32.6862 25.6717C32.6387 25.5892 32.603 25.5066 32.5555 25.4241C31.9139 24.3162 30.3218 24.2219 29.5614 25.2473C29.4544 25.3888 29.3831 25.542 29.2881 25.6834C29.1455 25.8956 28.8841 25.9663 28.6702 25.8485C28.4445 25.7306 28.3613 25.4831 28.4564 25.2238C28.8485 24.2337 30.0604 23.4793 31.1297 23.5854C31.1772 23.5854 31.2248 23.5854 31.2723 23.5972C32.3298 23.715 33.0902 24.2808 33.5417 25.2355C33.6367 25.4831 33.5417 25.7542 33.3159 25.872ZM37.522 28.6301C37.522 28.6655 37.5101 28.6891 37.5101 28.7244C37.4151 29.6202 36.5834 30.3392 35.7041 30.3039C34.7061 30.2685 33.9219 29.4906 33.91 28.5359C33.91 28.2412 34.0645 28.0408 34.3377 28.0172C34.5991 27.9819 34.8011 28.1587 34.8486 28.4416C34.8605 28.5241 34.8724 28.5948 34.8962 28.6773C34.9912 29.1606 35.4903 29.4552 35.9655 29.302C36.3457 29.1841 36.5477 28.9248 36.5834 28.5123C36.6071 28.1705 36.8448 27.9701 37.1299 28.0054C37.4032 28.0644 37.5576 28.3001 37.522 28.6301ZM42.738 25.8956C42.536 25.9781 42.3103 25.9192 42.1796 25.7424C42.1202 25.6599 42.0726 25.5656 42.0251 25.4831C41.3954 24.328 39.7439 24.2219 38.9834 25.2827C38.8884 25.4123 38.8171 25.5656 38.722 25.6952C38.5557 25.931 38.2468 25.9663 38.0329 25.7895C37.8547 25.6363 37.819 25.4123 37.9497 25.153C38.4488 24.1747 39.2448 23.6797 40.2191 23.5854C41.0984 23.55 41.7756 23.7976 42.3459 24.328C42.6548 24.6108 42.9162 24.9409 43.0232 25.3652C43.0707 25.6009 42.9519 25.8013 42.738 25.8956Z" fill="#F15B25"/>
<path d="M87.4484 60.0303C87.2108 60.0303 87.0088 59.8299 87.0088 59.5941V9.4059C87.0088 9.17016 87.2108 8.96979 87.4484 8.96979C87.686 8.96979 87.888 9.17016 87.888 9.4059V59.5941C87.888 59.8417 87.686 60.0303 87.4484 60.0303Z" fill="#F8F8F8"/>
<path d="M107.588 47.3948H108.978V58.0854H107.588V47.3948Z" fill="#F8F8F8"/>
<path d="M123.176 47.3948V58.0854H121.679L116.594 49.7286V58.0854H115.204V47.3948H116.689L121.786 55.7163V47.3948H123.176Z" fill="#F8F8F8"/>
<path d="M128.404 55.1976L129.771 54.8558C129.961 56.1995 130.959 57.0128 132.337 57.0128C133.751 57.0128 134.523 56.2938 134.523 55.2919C134.523 54.2783 133.882 53.7243 132.076 53.0406C129.842 52.192 129.07 51.4141 129.07 49.9761C129.07 48.3259 130.365 47.2062 132.266 47.2062C133.668 47.2062 134.761 47.8309 135.426 49.0096L134.262 49.7168C133.822 48.9035 133.097 48.432 132.218 48.432C131.208 48.432 130.46 49.1039 130.46 49.9289C130.46 50.8129 131.149 51.2962 132.824 51.9327C135.212 52.8167 135.925 53.6653 135.925 55.1623C135.925 57.0128 134.571 58.2268 132.325 58.2268C130.27 58.2504 128.701 57.0364 128.404 55.1976Z" fill="#F8F8F8"/>
<path d="M143.577 48.6442H139.929V47.383H148.627V48.6442H144.979V58.0736H143.577V48.6442Z" fill="#F8F8F8"/>
<path d="M158.263 55.4216H153.831L152.868 58.0736H151.336L155.494 47.383H156.587L160.746 58.0736H159.213L158.263 55.4216ZM157.811 54.2075L156.053 49.3631L154.294 54.2075H157.811Z" fill="#F8F8F8"/>
<path d="M173.709 47.3948V58.0854H172.212L167.126 49.7286V58.0854H165.748V47.3948H167.233L172.33 55.7163V47.3948H173.709Z" fill="#F8F8F8"/>
<path d="M182.346 48.6442H178.699V47.383H187.396V48.6442H183.749V58.0736H182.346V48.6442Z" fill="#F8F8F8"/>
<path d="M205.112 55.4216H200.68L199.717 58.0736H198.185L202.343 47.383H203.436L207.595 58.0736H206.062L205.112 55.4216ZM204.66 54.2075L202.902 49.3631L201.143 54.2075H204.66Z" fill="#F8F8F8"/>
<path d="M212.597 47.3948H215.853C218.205 47.3948 219.465 48.4556 219.465 50.4122C219.465 52.4042 218.169 53.4886 215.853 53.4886H213.987V58.0736H212.597V47.3948ZM215.71 52.2392C217.302 52.2392 218.074 51.638 218.074 50.4358C218.074 49.2453 217.29 48.656 215.71 48.656H213.975V52.2392H215.71Z" fill="#F8F8F8"/>
<path d="M224.859 47.3948H228.114C230.467 47.3948 231.726 48.4556 231.726 50.4122C231.726 52.4042 230.431 53.4886 228.114 53.4886H226.249V58.0736H224.859V47.3948ZM227.972 52.2392C229.564 52.2392 230.336 51.638 230.336 50.4358C230.336 49.2453 229.552 48.656 227.972 48.656H226.237V52.2392H227.972Z" fill="#F8F8F8"/>
</svg>
